<svg xmlns="http://www.w3.org/2000/svg" viewBox="0 0 59.76 59.76"><g><path d="M29.88 59.36a29.36 29.36 0 0 1-12.37-2.71l-.95.44C12.69 58.8 5.34 61.61 1.74 58S1 47.06 2.67 43.2l.44-.95a29.55 29.55 0 0 1 0-24.74l-.44-.95C1 12.69-1.85 5.34 1.74 1.74s10.95-.74 14.82.93l.95.44a29.54 29.54 0 0 1 24.74 0l.95-.44C47.06 1 54.41-1.85 58 1.75s.79 10.95-.93 14.81l-.44.95a29.54 29.54 0 0 1 0 24.74l.44.95C58.8 47.06 61.6 54.41 58 58s-10.95.79-14.81-.93l-.95-.43a29.37 29.37 0 0 1-12.37 2.71zM4.66 20.55a26.91 26.91 0 0 0 10.16 31.6c-.93.42-1.86.82-2.82 1.18a29.64 29.64 0 0 1-7.34-8.16c-2.22 5.28-2.75 9.33-1.07 11s6.19 1.08 11.91-1.47a65 65 0 0 0 12.26-7.42 105.38 105.38 0 0 1-8-7.25 89.6 89.6 0 0 1-15.1-19.48zm25.22 25.09a100.69 100.69 0 0 0 8.31-7.45c7.7-7.71 13.45-15.82 16.51-22.69 2.55-5.72 3.24-10.14 1.47-11.91s-5.73-1.15-11 1.07A29.64 29.64 0 0 1 53.32 12c-.36 1-.76 1.89-1.18 2.82a26.88 26.88 0 0 0-44.54 0C7.19 13.89 6.79 13 6.43 12a29.64 29.64 0 0 1 8.16-7.34c-5.28-2.22-9.33-2.75-11-1.08S2.51 9.78 5.05 15.5c3.07 6.88 8.81 15 16.52 22.69a100.75 100.75 0 0 0 8.31 7.45zm25.22-.47a29.64 29.64 0 0 1-7.34 8.16c-1-.36-1.89-.76-2.82-1.18a26.91 26.91 0 0 0 10.15-31.6A89.63 89.63 0 0 1 40 40a105.18 105.18 0 0 1-8 7.25 65 65 0 0 0 12.26 7.45c5.74 2.55 10.14 3.24 11.91 1.47s1.15-5.73-1.07-11zM29.88 49a74.33 74.33 0 0 1-9.32 6.14 27 27 0 0 0 18.65 0A74.28 74.28 0 0 1 29.88 49z" fill-rule="evenodd" fill="#333333"/></g></svg>