<svg xmlns="http://www.w3.org/2000/svg" viewBox="0 0 484.97 491.48"><defs><radialGradient id="ac2046fa2-d79a-448b-9d46-d988d089f923" cx="190.91" cy="185.33" r="243.02" gradientUnits="userSpaceOnUse"><stop offset="0" stop-color="#fbb041"/><stop offset=".22" stop-color="#faac40"/><stop offset=".43" stop-color="#f8a03c"/><stop offset=".63" stop-color="#f48d36"/><stop offset=".84" stop-color="#ef722d"/><stop offset="1" stop-color="#e95624"/></radialGradient><radialGradient id="b75c2f817-17e3-4612-b55e-2dd4a03d0fa7" cx="198.74" cy="194.83" r="240.81" gradientUnits="userSpaceOnUse"><stop offset=".11" stop-color="#ffd79a"/><stop offset="1" stop-color="#fbb041"/></radialGradient><radialGradient id="c2f172782-fd24-407b-a806-c207a13d33cf" cx="247.2" cy="48.83" r="41.39" gradientTransform="matrix(1 0 0 1.24 0 -50.07)" gradientUnits="userSpaceOnUse"><stop offset=".11" stop-color="#ffd79a"/><stop offset="1" stop-color="#fbb041"/></radialGradient><radialGradient id="d52d6e608-4f97-4e60-b3e9-3d7b8fbcf66d" cx="260.35" cy="3.02" r="41.39" gradientTransform="matrix(.94 -.34 .43 1.17 -82.52 112.07)" gradientUnits="userSpaceOnUse"><stop offset=".11" stop-color="#ffd79a"/><stop offset="1" stop-color="#fbb041"/></radialGradient><radialGradient id="e3e7fd3b3-ddb0-40f4-9e0e-362b4ae432f0" cx="292.76" cy="-36.17" r="41.39" gradientTransform="matrix(.77 -.64 .8 .95 -105.22 292.82)" gradientUnits="userSpaceOnUse"><stop offset=".11" stop-color="#ffd79a"/><stop offset="1" stop-color="#fbb041"/></radialGradient><radialGradient id="f0ab5371c-d6bf-454c-90cf-c61f9c8a82db" cx="339.83" cy="-65.22" r="41.39" gradientTransform="matrix(.5 -.87 1.08 .62 -63.51 471.1)" gradientUnits="userSpaceOnUse"><stop offset=".11" stop-color="#ffd79a"/><stop offset="1" stop-color="#fbb041"/></radialGradient><radialGradient id="ge69de37c-fec0-464c-961d-5d5df4f219dd" cx="395.4" cy="-78.13" r="41.39" gradientTransform="matrix(.17 -.98 1.22 .22 35.11 623.05)" gradientUnits="userSpaceOnUse"><stop offset=".11" stop-color="#ffd79a"/><stop offset="1" stop-color="#fbb041"/></radialGradient><radialGradient id="h07ebf0c5-fe32-4515-8c0a-4b00baf5c1f6" cx="454.29" cy="-76.19" r="41.39" gradientTransform="matrix(-.17 -.98 1.22 -.22 181.4 733.02)" gradientUnits="userSpaceOnUse"><stop offset=".11" stop-color="#ffd79a"/><stop offset="1" stop-color="#fbb041"/></radialGradient><radialGradient id="ide501a72-a2a0-40e7-b087-9e7dc2ef4f67" cx="507.78" cy="-57.68" r="41.39" gradientTransform="matrix(-.5 -.87 1.08 -.62 355.49 785.7)" gradientUnits="userSpaceOnUse"><stop offset=".11" stop-color="#ffd79a"/><stop offset="1" stop-color="#fbb041"/></radialGradient><radialGradient id="j4c613ab4-56eb-45b6-8029-721d5d9c1bda" cx="550.83" cy="-25.38" r="41.39" gradientTransform="matrix(-.77 -.64 .8 -.95 537.43 776.31)" gradientUnits="userSpaceOnUse"><stop offset=".11" stop-color="#ffd79a"/><stop offset="1" stop-color="#fbb041"/></radialGradient><radialGradient id="k9cf5c5eb-74e6-421a-bb90-9901e351f47c" cx="577.29" cy="17.17" r="41.39" gradientTransform="matrix(-.94 -.34 .43 -1.17 704.83 705.53)" gradientUnits="userSpaceOnUse"><stop offset=".11" stop-color="#ffd79a"/><stop offset="1" stop-color="#fbb041"/></radialGradient><radialGradient id="l0335442a-bab5-4fbd-a377-8af03a26d892" cx="584.18" cy="63.57" r="41.39" gradientTransform="matrix(-1 0 0 -1.24 838 580.73)" gradientUnits="userSpaceOnUse"><stop offset=".11" stop-color="#ffd79a"/><stop offset="1" stop-color="#fbb041"/></radialGradient><radialGradient id="m6c080a7b-2ee5-4a0e-a6e2-3a31b8a8480c" cx="570.74" cy="109.6" r="41.39" gradientTransform="matrix(-.94 .34 -.43 -1.17 920.52 418.59)" gradientUnits="userSpaceOnUse"><stop offset=".11" stop-color="#ffd79a"/><stop offset="1" stop-color="#fbb041"/></radialGradient><radialGradient id="n4c183405-782d-4008-9ff4-f96653cac5b9" cx="539.13" cy="149.41" r="41.39" gradientTransform="matrix(-.77 .64 -.8 -.95 943.23 237.84)" gradientUnits="userSpaceOnUse"><stop offset=".11" stop-color="#ffd79a"/><stop offset="1" stop-color="#fbb041"/></radialGradient><radialGradient id="o7782c36e-3e21-4706-8cc0-3645fbdaa49a" cx="492.46" cy="176.93" r="41.39" gradientTransform="matrix(-.5 .87 -1.08 -.62 901.51 59.57)" gradientUnits="userSpaceOnUse"><stop offset=".11" stop-color="#ffd79a"/><stop offset="1" stop-color="#fbb041"/></radialGradient><radialGradient id="pb6314533-3eb7-4adc-8305-cad7e9355bff" cx="435.86" cy="191.43" r="41.39" gradientTransform="matrix(-.17 .98 -1.22 -.22 802.89 -92.38)" gradientUnits="userSpaceOnUse"><stop offset=".11" stop-color="#ffd79a"/><stop offset="1" stop-color="#fbb041"/></radialGradient><radialGradient id="qb555651d-f90d-4620-8ee5-96855e67e7f3" cx="377.73" cy="188.25" r="41.39" gradientTransform="matrix(.17 .98 -1.22 .22 656.6 -202.35)" gradientUnits="userSpaceOnUse"><stop offset=".11" stop-color="#ffd79a"/><stop offset="1" stop-color="#fbb041"/></radialGradient><radialGradient id="r3401c697-49ea-490d-9f7d-84059622ef53" cx="323.41" cy="169.74" r="41.39" gradientTransform="matrix(.5 .87 -1.08 .62 482.51 -255.03)" gradientUnits="userSpaceOnUse"><stop offset=".11" stop-color="#ffd79a"/><stop offset="1" stop-color="#fbb041"/></radialGradient><radialGradient id="s29f6743f-c9ab-45dc-b1de-427f1a7c454d" cx="280.9" cy="137.6" r="41.39" gradientTransform="matrix(.77 .64 -.8 .95 300.57 -245.64)" gradientUnits="userSpaceOnUse"><stop offset=".11" stop-color="#ffd79a"/><stop offset="1" stop-color="#fbb041"/></radialGradient><radialGradient id="tfffabfca-585b-48a0-9783-61ee9bcaccae" cx="254.37" cy="96.04" r="41.39" gradientTransform="matrix(.94 .34 -.43 1.17 133.17 -174.86)" gradientUnits="userSpaceOnUse"><stop offset=".11" stop-color="#ffd79a"/><stop offset="1" stop-color="#fbb041"/></radialGradient></defs><title>15</title><g data-name="&#x56FE;&#x5C42; 1" style="isolation:isolate"><circle cx="242.49" cy="245.74" r="166.57" fill="url(#ac2046fa2-d79a-448b-9d46-d988d089f923)"/><path d="M242.48 79.18a165.94 165.94 0 0 0-111.93 43.22c4.72 29.49 19.37 46 23.91 52.58 6 8.72 12.18 21.37 17.15 26.52 1 1 2 2 3 3.09a13.12 13.12 0 0 0-1.52 4.57 55.77 55.77 0 0 1-17.54 7.52 36.69 36.69 0 0 0 12-1.32 55.17 55.17 0 0 1-16 6.6 36.69 36.69 0 0 0 12.28-1.39c-.4.27-.78.55-1.19.82a55.86 55.86 0 0 1-17.73 7.64c7.77.5 16.71-1.82 24.86-7.13a47.2 47.2 0 0 0 5-3.77 14.15 14.15 0 0 0 4.77 5.59 84.44 84.44 0 0 1-2.84 14.14c-7.43 26.56-12 25.66-3.81 32.4 5.83 4.79 14.74 2.72 19.65 3.62s10.16 2.74 10.19 9.46c0 4.17-4.18 9 4.38 13.09 7.53 3.61 16.37-2.93 19.72-4.67 1.23-.64-8.66 5.27-10.93 10-1.64 3.39-.73 10.56 3.45 11.94s9.87-1.13 11.83-1.42 5.94 5.13 7.21 6.42c5.51 5.6 2.61 14.78 4.91 22.25 2.46 8 16.39 18.48 31.56 10.15s38.61-26.6 47.71-35c13.76-12.7 46.07-18.17 57.13-16.8a119.26 119.26 0 0 1 19 4.19A166.65 166.65 0 0 0 242.48 79.18z" fill="#fff"/><circle cx="242.56" cy="246.44" r="166.57" fill="none"/><path d="M101.64 268.09a158.55 158.55 0 0 1 314.73-27.3 166.56 166.56 0 1 0-206.82 177.54 158.58 158.58 0 0 1-107.91-150.24z" transform="translate(-8.03 -10.43)" fill="url(#b75c2f817-17e3-4612-b55e-2dd4a03d0fa7)" style="mix-blend-mode:multiply"/><path d="M247.73 10.43c-9.32 7.06-15.54 19.8-15.54 34.36 0 13.48 5.34 25.4 13.52 32.7l1-25.95 1-27.63 1 27.63 1 25.95c8.19-7.29 13.53-19.22 13.53-32.7.04-14.55-6.18-27.3-15.51-34.36z" transform="translate(-8.03 -10.43)" fill="url(#c2f172782-fd24-407b-a806-c207a13d33cf)"/><path d="M163.85 26.2C157.5 36 156 50.13 161 63.81c4.61 12.67 13.71 22 23.89 26.09l-8-24.71-8.47-26.32 10.43 25.61 9.8 24c5.2-9.65 6.14-22.68 1.53-35.35C185.23 39.5 175 29.65 163.85 26.2z" transform="translate(-8.03 -10.43)" fill="url(#d52d6e608-4f97-4e60-b3e9-3d7b8fbcf66d)"/><path d="M90.42 69.71c-2.6 11.4.82 25.17 10.18 36.32 8.66 10.32 20.42 16 31.38 16.35L116 101.88 99.09 80l18.56 20.49 17.43 19.25c1.58-10.85-2-23.41-10.65-33.74-9.37-11.11-22.33-16.88-34.01-16.29z" transform="translate(-8.03 -10.43)" fill="url(#e3e7fd3b3-ddb0-40f4-9e0e-362b4ae432f0)"/><path d="M36.31 135.71c1.45 11.6 9.38 23.37 22 30.65C70 173.1 83 174.43 93.37 171l-22-13.82L48 142.46l24.45 12.91 23 12.13c-2.23-10.75-9.88-21.33-21.55-28.07-12.67-7.28-26.82-8.26-37.59-3.72z" transform="translate(-8.03 -10.43)" fill="url(#f0ab5371c-d6bf-454c-90cf-c61f9c8a82db)"/><path d="M8 216.24c5.33 10.41 16.8 18.75 31.14 21.28 13.27 2.34 25.94-.85 34.54-7.64l-25.38-5.47-27-5.82 27.39 3.77 25.73 3.54c-5.77-9.33-16.57-16.66-29.85-19-14.34-2.53-27.97 1.39-36.57 9.34z" transform="translate(-8.03 -10.43)" fill="url(#ge69de37c-fec0-464c-961d-5d5df4f219dd)"/><path d="M9 301.59c8.57 8 22.2 11.88 36.54 9.34 13.28-2.34 24.08-9.67 29.85-19l-25.72 3.54-27.39 3.77 27-5.83 25.4-5.41c-8.61-6.8-21.27-10-34.55-7.64C25.8 282.84 14.32 291.18 9 301.59z" transform="translate(-8.03 -10.43)" fill="url(#h07ebf0c5-fe32-4515-8c0a-4b00baf5c1f6)"/><path d="M39.09 381.45C49.86 386 64 385 76.63 377.73c11.67-6.73 19.32-17.32 21.55-28.06l-23 12.13-24.41 12.92L74.17 360l22-13.83c-10.42-3.44-23.4-2.11-35.07 4.63-12.63 7.29-20.56 19.05-22.01 30.65z" transform="translate(-8.03 -10.43)" fill="url(#ide501a72-a2a0-40e7-b087-9e7dc2ef4f67)"/><path d="M94.69 446.21c11.67.58 24.64-5.18 34-16.34 8.67-10.32 12.23-22.88 10.65-33.73l-17.43 19.25-18.55 20.5 17-21.83 15.93-20.52c-11 .33-22.71 6-31.38 16.35-9.4 11.11-12.83 24.92-10.22 36.32z" transform="translate(-8.03 -10.43)" fill="url(#j4c613ab4-56eb-45b6-8029-721d5d9c1bda)"/><path d="M169.08 488c11.17-3.45 21.38-13.29 26.36-27 4.62-12.67 3.67-25.69-1.53-35.35l-9.8 24-10.41 25.73 8.46-26.32 8-24.72c-10.19 4.07-19.28 13.43-23.89 26.09-5.02 13.69-3.53 27.8 2.81 37.57z" transform="translate(-8.03 -10.43)" fill="url(#k9cf5c5eb-74e6-421a-bb90-9901e351f47c)"/><path d="M253.3 501.92c9.32-7.06 15.55-19.81 15.54-34.38 0-13.48-5.34-25.39-13.52-32.68l-1 25.94-1 27.64-1.05-27.63-1-26c-8.19 7.3-13.52 19.22-13.53 32.69.02 14.61 6.26 27.36 15.56 34.42z" transform="translate(-8.03 -10.43)" fill="url(#l0335442a-bab5-4fbd-a377-8af03a26d892)"/><path d="M337.18 486.14c6.35-9.82 7.83-23.93 2.84-37.61-4.6-12.66-13.7-22-23.89-26.09l8 24.71 8.49 26.32-10.44-25.6-9.8-24.06c-5.2 9.66-6.13 22.69-1.53 35.35 4.95 13.68 15.15 23.54 26.33 26.98z" transform="translate(-8.03 -10.43)" fill="url(#m6c080a7b-2ee5-4a0e-a6e2-3a31b8a8480c)"/><path d="M410.61 442.63c2.61-11.39-.82-25.16-10.19-36.32C391.76 396 380 390.29 369.05 390L385 410.46l17 21.83-18.62-20.49L366 392.55c-1.58 10.86 2 23.42 10.64 33.74 9.36 11.16 22.29 16.92 33.97 16.34z" transform="translate(-8.03 -10.43)" fill="url(#n4c183405-782d-4008-9ff4-f96653cac5b9)"/><path d="M464.72 376.63c-1.45-11.6-9.39-23.37-22-30.65-11.67-6.74-24.67-8.07-35.07-4.64l22 13.83L453 369.88 428.6 357l-23-12.12c2.23 10.74 9.88 21.32 21.55 28.06 12.65 7.25 26.79 8.23 37.57 3.69z" transform="translate(-8.03 -10.43)" fill="url(#o7782c36e-3e21-4706-8cc0-3645fbdaa49a)"/><path d="M493 296.1c-5.33-10.41-16.81-18.76-31.15-21.28-13.27-2.34-25.94.85-34.55 7.64l25.38 5.47 27 5.81-27.34-3.74-25.73-3.54c5.78 9.34 16.57 16.66 29.85 19 14.34 2.54 27.98-1.41 36.54-9.36z" transform="translate(-8.03 -10.43)" fill="url(#pb6314533-3eb7-4adc-8305-cad7e9355bff)"/><path d="M492 210.76c-8.57-8-22.2-11.87-36.55-9.34-13.26 2.33-24.08 9.67-29.85 19l25.73-3.54 27.38-3.79-27 5.84-25.39 5.47c8.62 6.79 21.28 10 34.55 7.65 14.36-2.54 25.83-10.89 31.13-21.29z" transform="translate(-8.03 -10.43)" fill="url(#qb555651d-f90d-4620-8ee5-96855e67e7f3)"/><path d="M461.93 130.89c-10.77-4.55-24.93-3.56-37.53 3.72-11.67 6.73-19.33 17.33-21.56 28.06l23-12.12 24.44-12.92-23.4 14.72-22 13.83c10.42 3.45 23.4 2.11 35.08-4.63 12.6-7.29 20.52-19.06 21.97-30.66z" transform="translate(-8.03 -10.43)" fill="url(#r3401c697-49ea-490d-9f7d-84059622ef53)"/><path d="M406.34 66.14c-11.68-.59-24.64 5.18-34 16.33-8.66 10.32-12.23 22.89-10.65 33.74L379.11 97l18.55-20.5-17 21.84-15.88 20.46c11-.33 22.71-6 31.38-16.34 9.36-11.16 12.78-24.93 10.18-36.32z" transform="translate(-8.03 -10.43)" fill="url(#s29f6743f-c9ab-45dc-b1de-427f1a7c454d)"/><path d="M331.94 24.3c-11.17 3.44-21.38 13.3-26.36 27-4.58 12.64-3.66 25.7 1.53 35.32l9.79-24L327.32 37l-8.46 26.32-8 24.72c10.19-4.06 19.28-13.43 23.9-26.1 5.02-13.72 3.53-27.82-2.82-37.64z" transform="translate(-8.03 -10.43)" fill="url(#tfffabfca-585b-48a0-9783-61ee9bcaccae)"/></g></svg>